<?xml version="1.0" encoding="UTF-8"?>
<!-- Generated by Pixelmator Pro 3.7 -->
<svg width="64" height="64" viewBox="0 0 64 64" xmlns="http://www.w3.org/2000/svg">
    <g id="Group">
        <path id="Path" fill="#000000" stroke="none" d="M 44.707047 28.911057 L 29.980473 44.814941 C 27.269384 47.742767 22.698141 47.918465 19.770319 45.207382 L 3.866431 30.480808 C 0.938604 27.769718 0.762904 23.198479 3.473994 20.270653 L 18.200567 4.366764 C 20.911655 1.438942 25.482895 1.263237 28.410721 3.974327 L 44.31461 18.700901 C 47.242432 21.411987 47.418133 25.983231 44.707047 28.911057 Z"/>
        <path id="path1" fill="#000000" stroke="none" d="M 60.610935 43.637627 L 55.702076 48.938927 L 39.798187 34.212349 L 44.707047 28.911057 Z"/>
        <path id="path2" fill="#000000" stroke="none" d="M 50.793221 54.240219 L 45.884361 59.541515 L 29.980473 44.814941 L 34.889332 39.513649 Z"/>
        <path id="path3" fill="#fffc67" stroke="none" d="M 36.325241 35.304451 L 29.069132 19.354149 L 22.626257 26.312099 L 16.555965 11.459827 L 21.58165 34.576164 L 27.104116 28.612209 Z"/>
    </g>
</svg>
